<svg xmlns="http://www.w3.org/2000/svg" viewBox="0 0 48 48" width="48" height="48" fill="none">
	<defs>
		<linearGradient id="bg" x1="8" y1="6" x2="40" y2="42" gradientUnits="userSpaceOnUse">
			<stop stop-color="#1f7cff"/>
			<stop offset="1" stop-color="#0b46c4"/>
		</linearGradient>
		<linearGradient id="bin" x1="12" y1="18" x2="36" y2="38" gradientUnits="userSpaceOnUse">
			<stop stop-color="#1e6cff"/>
			<stop offset="1" stop-color="#0f51d6"/>
		</linearGradient>
		<linearGradient id="metal" x1="17" y1="12" x2="31" y2="34" gradientUnits="userSpaceOnUse">
			<stop stop-color="#d9dce3"/>
			<stop offset="1" stop-color="#7b808a"/>
		</linearGradient>
		<filter id="shadow" x="0" y="0" width="48" height="48" color-interpolation-filters="sRGB">
			<feDropShadow dx="0" dy="2" stdDeviation="1.5" flood-color="#001a66" flood-opacity="0.35"/>
		</filter>
	</defs>
	<rect x="3" y="3" width="42" height="42" rx="12" fill="url(#bg)"/>
	<path d="M11 18.5h26c1.1 0 2 .9 2 2v15.5c0 1.1-.9 2-2 2H11c-1.1 0-2-.9-2-2V20.5c0-1.1.9-2 2-2Z" fill="url(#bin)" filter="url(#shadow)"/>
	<path d="M11.8 19.7h24.4c.7 0 1.3.6 1.3 1.3v1.8H10.5V21c0-.7.6-1.3 1.3-1.3Z" fill="#4fc3ff" opacity="0.9"/>
	<path d="M12.7 21.6h22.6v14H12.7z" fill="#1147c7" opacity="0.34"/>
	<g filter="url(#shadow)">
		<path d="M15 15.5c0-1.1.9-2 2-2h2.2l1.1 2.1h2.2l1.1-2.1h2.2c1.1 0 2 .9 2 2v1.7c0 .8-.4 1.6-1 2l-4.9 3.1c-.7.5-1.6.5-2.3 0l-4.8-3.1c-.6-.4-1-1.2-1-2v-1.7Z" fill="url(#metal)"/>
		<circle cx="18.7" cy="18.5" r="0.9" fill="#42454f"/>
		<circle cx="29.4" cy="18.5" r="0.9" fill="#42454f"/>
		<path d="M17.4 12.9h1.8v2.8h-1.8zM28.8 12.9h1.8v2.8h-1.8z" fill="#f3f4f7"/>
		<path d="M16.1 14.8h2.1l1.2 2h1.1l1.2-2h2.1" stroke="#f4f6fa" stroke-width="0.7" stroke-linecap="round" stroke-linejoin="round"/>
	</g>
	<g filter="url(#shadow)">
		<circle cx="21" cy="27.5" r="6" fill="#f4f6fb"/>
		<circle cx="21" cy="27.5" r="4.2" fill="#70757f"/>
		<circle cx="21" cy="27.5" r="2.1" fill="#1a1d24"/>
		<circle cx="21" cy="27.5" r="5.1" stroke="#c9ced8" stroke-width="1"/>
		<circle cx="21" cy="27.5" r="4.6" stroke="#8d929c" stroke-width="0.6"/>
	</g>
	<g filter="url(#shadow)">
		<rect x="30.6" y="11.5" width="3.1" height="21.5" rx="1.1" transform="rotate(10 30.6 11.5)" fill="url(#metal)"/>
		<rect x="34.3" y="11.7" width="3.1" height="21.5" rx="1.1" transform="rotate(10 34.3 11.7)" fill="url(#metal)"/>
		<path d="M31.5 12.7h2l-.4 1.8h-2zM35.2 13h2l-.4 1.8h-2z" fill="#f5f6fa"/>
		<path d="M29.9 17.1h5.9M30.2 19.4h5.9M30.6 21.7h5.9M31 24h5.9" stroke="#f5f6fa" stroke-width="0.65" stroke-linecap="round" opacity="0.9"/>
	</g>
	<g filter="url(#shadow)">
		<path d="M36.6 31.8c0-.8.7-1.5 1.5-1.5h1.3c.8 0 1.5.7 1.5 1.5v2.5c0 .8-.7 1.5-1.5 1.5h-1.3c-.8 0-1.5-.7-1.5-1.5v-2.5Z" fill="url(#metal)" transform="rotate(18 36.6 31.8)"/>
		<path d="M38.2 30.2v6.2" stroke="#f5f6fa" stroke-width="1.8" stroke-linecap="round" transform="rotate(18 38.2 30.2)"/>
	</g>
	<rect x="16" y="35" width="16" height="7" rx="1.5" fill="#f6f7fb"/>
	<rect x="18" y="37" width="12" height="3" rx="0.5" fill="#1a1d24"/>
	<g fill="#f6f7fb">
		<rect x="18.6" y="36.6" width="0.7" height="4.2"/>
		<rect x="20.1" y="36.6" width="0.7" height="4.2"/>
		<rect x="21.6" y="36.6" width="0.7" height="4.2"/>
		<rect x="23.1" y="36.6" width="0.7" height="4.2"/>
		<rect x="24.6" y="36.6" width="0.7" height="4.2"/>
		<rect x="26.1" y="36.6" width="0.7" height="4.2"/>
		<rect x="27.6" y="36.6" width="0.7" height="4.2"/>
		<rect x="29.1" y="36.6" width="0.7" height="4.2"/>
	</g>
</svg>